<svg width="446" height="418" viewBox="0 0 446 418" fill="none" xmlns="http://www.w3.org/2000/svg">
<path d="M256.295 82.7616C270.167 79.0367 282.012 93.1936 288.186 106.141C304.408 140.132 310.522 178.351 327.619 211.994C341.083 238.512 361.189 261.939 369.498 290.504C370.972 295.558 372.039 300.9 371.008 306.074C368.874 316.758 358.647 323.573 349.2 329.022C334.057 337.766 318.387 346.197 301.243 349.946C284.098 353.695 265.215 352.258 250.732 342.437C235.853 332.352 227.713 315.177 216.155 301.415C201.276 283.689 180.775 271.724 160.453 260.693C140.131 249.662 119.186 238.847 102.545 222.762C85.9038 206.676 73.8906 184.016 76.4803 161.032C78.8782 140.252 92.8576 122.118 110.302 110.572C127.746 99.0265 148.344 93.2535 168.857 89.1214C197.632 83.3365 227.173 80.45 256.379 83.2287" fill="#CED4ED"/>
<path d="M239.185 143.725C204.423 143.725 176.242 115.573 176.242 80.8453C176.242 46.1178 204.423 17.9656 239.185 17.9656C273.948 17.9656 302.129 46.1178 302.129 80.8453C302.129 115.573 273.948 143.725 239.185 143.725Z" fill="#F5CD56"/>
<path d="M365.133 366.978C362.484 349.192 358.911 331.561 356.597 313.728L358.395 315.524L320.713 315.165C320.304 315.17 319.905 315.039 319.579 314.791C319.253 314.544 319.019 314.195 318.915 313.799C315.654 302.517 312.069 291.318 308.52 280.12L307.441 276.718L309.18 278.036C302.945 277.852 296.715 277.637 290.488 277.389C286.148 277.209 281.808 277.03 277.468 276.742C276.029 276.647 274.591 276.551 273.164 276.383C272.253 276.377 271.354 276.177 270.526 275.796C269.76 275.155 269.235 274.272 269.039 273.293C268.608 271.999 268.272 270.682 267.924 269.364C266.869 265.304 265.934 261.208 265.011 257.112C263.381 249.926 261.942 242.739 260.072 235.553C259.88 234.823 259.976 235.421 260.299 235.721C260.623 236.02 261.175 236.152 260.299 235.972C259.832 235.877 260.671 235.972 260.143 235.972L259.34 235.889L257.278 235.733C253.346 235.469 249.389 235.326 245.445 235.17C237.388 234.87 229.247 234.859 221.214 234.032C220.22 234.023 219.236 233.828 218.313 233.457C217.655 232.994 217.154 232.343 216.874 231.589C215.388 228.594 214.177 225.445 212.918 222.354C209.753 214.605 206.791 206.641 203.422 199.071C202.942 198.295 202.54 197.472 202.223 196.616C202.223 196.388 202.547 196.927 202.379 196.831C202.211 196.735 202.967 197.31 203.051 197.203C203.135 197.095 202.799 197.107 202.775 197.143C202.751 197.179 201.864 197.011 202.643 197.143L201.912 197.059C198.495 196.723 195.042 196.64 191.613 196.508C183.664 196.208 175.727 196.017 167.778 195.861H166.196C165.803 195.855 165.423 195.723 165.111 195.486C164.798 195.25 164.569 194.919 164.457 194.544L151.149 156.001L149.291 150.612L150.55 151.809L117.735 146.12C116.225 145.857 114.942 145.905 114.138 144.432C112.888 142.406 111.801 140.283 110.889 138.084C109.067 133.089 107.568 127.939 105.914 122.885L100.615 106.668L101.873 107.866C93.2651 104.704 84.6449 101.578 75.9767 98.5953C73.4109 97.721 70.8453 96.8466 68.2436 96.0442C66.0376 95.3735 67.0447 91.9001 69.2027 92.5828C75.9047 94.6429 82.5108 97.0622 89.1049 99.4217L98.6003 103.003C99.9911 103.506 101.454 103.937 102.797 104.536C104.139 105.135 104.415 106.931 104.859 108.237L107.257 115.495L112.951 132.91C113.431 134.395 113.911 135.88 114.402 137.353C114.138 136.551 114.402 137.353 114.63 137.736L115.721 139.796L117.495 143.114L116.416 142.288L147.253 147.629L151.641 148.396C151.924 148.481 152.182 148.635 152.392 148.844C152.601 149.053 152.755 149.31 152.84 149.594L166.148 188.136L168.006 193.538L166.28 192.208C172.514 192.328 178.752 192.48 184.995 192.663C189.311 192.795 193.615 192.927 197.931 193.166C199.322 193.238 200.737 193.31 202.128 193.454C203.136 193.41 204.132 193.692 204.969 194.256C205.486 194.85 205.892 195.531 206.168 196.268C206.815 197.658 207.367 199.083 208.014 200.508C209.681 204.485 211.275 208.497 212.882 212.485C214.488 216.474 216.179 220.726 217.881 224.81C218.457 226.175 219.08 227.541 219.656 228.894C219.848 229.325 220.051 229.768 220.279 230.187C220.358 230.311 220.43 230.439 220.495 230.571C220.699 231.014 220.423 230.571 220.495 230.571C219.956 230.211 219.656 230.223 220.411 230.331H220.555L221.49 230.439C222.965 230.583 224.451 230.667 225.938 230.75C230.23 231.002 234.522 231.158 238.827 231.313C243.335 231.481 247.843 231.649 252.35 231.852C255.339 231.886 258.322 232.106 261.282 232.511C263.345 232.858 263.68 234.499 264.052 236.26C264.915 239.709 265.659 243.195 266.45 246.668C268.26 254.788 269.879 263.017 272.217 271.017C272.361 271.52 272.516 272.035 272.684 272.538C272.756 272.73 272.828 272.934 272.912 273.125C272.912 273.041 272.648 272.514 272.912 273.125C272.912 273.209 272.325 272.371 272.097 272.514C272.097 272.514 272.373 272.598 272.408 272.598C272.444 272.598 272.78 272.67 272.96 272.694C273.356 272.766 272.516 272.694 272.96 272.694H273.368C276.844 273.065 280.345 273.221 283.846 273.389C291.783 273.784 299.72 274.048 307.669 274.287H309.251C309.642 274.294 310.02 274.426 310.331 274.663C310.641 274.9 310.868 275.23 310.978 275.605C313.935 284.875 316.845 294.165 319.706 303.475C320.641 306.541 321.564 309.607 322.452 312.686L320.725 311.368L358.407 311.727C358.88 311.74 359.331 311.933 359.666 312.267C360 312.601 360.194 313.051 360.206 313.524C362.484 331.046 366.009 348.353 368.598 365.816C368.934 368.08 365.469 369.05 365.121 366.774L365.133 366.978Z" fill="black"/>
<path d="M84.5234 89.2292C67.7385 94.0201 68.338 94.0201 68.338 94.0201L76.131 114.561" stroke="black" stroke-width="3" stroke-miterlimit="10"/>
<path d="M215.833 86.9165C217.443 92.1917 219.571 97.2948 222.187 102.151C222.327 102.388 222.518 102.59 222.748 102.742C222.977 102.893 223.238 102.991 223.511 103.027C223.784 103.062 224.061 103.036 224.322 102.948C224.583 102.861 224.82 102.715 225.016 102.523L261.416 61.8006C262.95 60.0879 260.421 57.5368 258.874 59.2615L222.535 99.9955L225.352 100.355C222.886 95.7722 220.878 90.9581 219.357 85.9823C218.686 83.7785 215.221 84.7127 215.893 86.9405L215.833 86.9165Z" fill="black"/>
<path d="M104.834 9.11454C104.651 18.3755 105.892 27.6097 108.515 36.4941C109.174 38.7219 105.697 39.6681 105.05 37.4523C102.336 28.2568 101.05 18.6997 101.237 9.11454C101.237 6.80297 104.834 6.80297 104.834 9.11454Z" fill="#F5D466"/>
<path d="M93.2038 24.7087C101.532 21.942 110.415 21.2714 119.065 22.7564C121.343 23.1397 120.383 26.6011 118.106 26.2178C110.071 24.9026 101.837 25.5812 94.127 28.194C91.921 28.9366 90.9739 25.4633 93.1679 24.7327L93.2038 24.7087Z" fill="#F5D466"/>
<path d="M96.981 16.4445C103.255 22.1935 109.718 27.7229 116.368 33.0328C116.701 33.3712 116.889 33.8272 116.889 34.3023C116.889 34.7775 116.701 35.2335 116.368 35.5719C116.026 35.8998 115.571 36.083 115.097 36.083C114.623 36.083 114.168 35.8998 113.826 35.5719C107.176 30.2701 100.714 24.7446 94.4393 18.9956C92.7248 17.4266 95.2786 14.8875 96.981 16.4445Z" fill="#F5D466"/>
<path d="M398.571 233.086C398.387 242.347 399.628 251.581 402.251 260.466C402.911 262.693 399.434 263.639 398.786 261.424C396.072 252.228 394.786 242.671 394.974 233.086C394.974 230.774 398.571 230.774 398.571 233.086Z" fill="#F5D466"/>
<path d="M386.94 248.68C395.268 245.913 404.151 245.243 412.801 246.728C415.079 247.111 414.12 250.572 411.842 250.189C403.808 248.874 395.573 249.553 387.863 252.165C385.657 252.908 384.71 249.435 386.904 248.704L386.94 248.68Z" fill="#F5D466"/>
<path d="M388.451 243.003C396.06 246.884 403.773 250.521 411.59 253.914C412.002 254.156 412.302 254.552 412.423 255.014C412.545 255.477 412.478 255.968 412.237 256.381C411.989 256.783 411.594 257.074 411.136 257.192C410.678 257.31 410.192 257.247 409.78 257.016C401.963 253.663 394.266 250.045 386.688 246.165C384.626 245.111 386.437 242.009 388.499 243.063L388.451 243.003Z" fill="#F5D466"/>
<path d="M170.776 352.857C170.592 362.118 171.833 371.352 174.456 380.236C175.116 382.464 171.639 383.41 170.991 381.194C168.277 371.999 166.991 362.442 167.179 352.857C167.179 350.545 170.776 350.545 170.776 352.857Z" fill="#F5D466"/>
<path d="M159.145 368.451C167.473 365.684 176.356 365.014 185.006 366.499C187.284 366.882 186.325 370.343 184.047 369.96C176.013 368.645 167.778 369.323 160.068 371.936C157.862 372.679 156.915 369.205 159.109 368.475L159.145 368.451Z" fill="#F5D466"/>
<path d="M162.922 360.187C169.197 365.936 175.659 371.465 182.309 376.775C182.643 377.113 182.83 377.569 182.83 378.044C182.83 378.52 182.643 378.976 182.309 379.314C181.967 379.642 181.512 379.825 181.038 379.825C180.564 379.825 180.109 379.642 179.767 379.314C173.109 374.004 166.647 368.479 160.381 362.738C158.666 361.169 161.22 358.63 162.922 360.187Z" fill="#F5D466"/>
<path d="M393.116 94.9782C393.036 95.5966 392.832 96.1925 392.516 96.7302C392.2 97.268 391.779 97.7365 391.277 98.1077C390.776 98.479 390.204 98.7453 389.597 98.8908C388.99 99.0364 388.36 99.0581 387.745 98.9546L338.589 90.7743C337.862 90.6637 337.164 90.4097 336.535 90.0272C335.907 89.6447 335.361 89.1413 334.93 88.5462C334.498 87.9511 334.189 87.2762 334.02 86.5607C333.852 85.8452 333.828 85.1034 333.949 84.3785C336.275 70.2096 341.694 33.7275 341.694 33.7275C341.81 32.8888 342.254 32.1301 342.927 31.6164C343.601 31.1026 344.451 30.8756 345.291 30.9847L397.168 38.9255C398.016 39.0583 398.777 39.5208 399.285 40.2119C399.792 40.9031 400.005 41.7668 399.878 42.6145L393.116 94.9782Z" fill="white"/>
<path d="M394.854 95.4573C394.7 96.2999 394.38 97.1039 393.915 97.8231C393.449 98.5424 392.846 99.1628 392.14 99.649C391.434 100.135 390.639 100.477 389.8 100.656C388.962 100.835 388.096 100.847 387.253 100.691C386.737 100.619 386.222 100.524 385.706 100.44L375.875 98.7989L347.365 94.0081L338.804 92.5709C337.524 92.4197 336.295 91.9816 335.208 91.2893C332.126 89.1574 331.815 85.9236 332.366 82.5221C334.26 71.0121 335.963 59.4662 337.725 47.9203C338.373 43.6565 339.016 39.3926 339.656 35.1288C339.739 34.482 339.811 33.8353 339.931 33.2005C340.063 32.5459 340.323 31.9236 340.695 31.3694C341.068 30.8151 341.546 30.3397 342.103 29.9704C342.66 29.601 343.284 29.345 343.94 29.217C344.596 29.0889 345.271 29.0913 345.926 29.2241C352.4 30.1343 358.838 31.2003 365.289 32.1944L392.648 36.4343C394.463 36.6027 396.265 36.8868 398.043 37.2847C399.195 37.6268 400.188 38.3655 400.847 39.3697C401.505 40.3739 401.786 41.5786 401.64 42.7702C401.568 43.5247 401.448 44.2913 401.352 45.0458L398.115 70.1258L395.082 93.6608L394.914 94.9782C394.626 97.2299 391.017 97.2659 391.317 94.9782L396.976 51.1901L397.983 43.381C398.091 42.4827 398.343 41.4287 397.384 40.8778C396.83 40.6546 396.242 40.529 395.645 40.5065L374.149 37.2128L348.719 33.3083C347.329 33.1047 344.391 32.1106 343.612 33.4999C343.366 34.1934 343.229 34.9205 343.204 35.6558C342.965 37.2008 342.737 38.7578 342.509 40.3029C340.862 51.2499 339.192 62.193 337.497 73.1321C337.09 75.751 336.69 78.374 336.299 81.001C335.939 83.2168 334.932 86.0194 336.694 87.8758C338.037 89.3011 340.914 89.349 342.761 89.6484L368.334 93.9123C374.856 95.0022 381.378 96.3077 387.948 97.182C388.351 97.2407 388.762 97.217 389.155 97.1125C389.549 97.008 389.917 96.8247 390.238 96.5739C390.558 96.3231 390.824 96.0099 391.02 95.6533C391.216 95.2966 391.338 94.904 391.377 94.4992C391.773 92.2235 395.238 93.1817 394.854 95.4573Z" fill="black"/>
<path d="M350.614 67.6585C352.278 73.9057 354.673 79.9357 357.747 85.6241C357.888 85.8601 358.081 86.0609 358.311 86.2114C358.541 86.3619 358.802 86.4581 359.074 86.4927C359.347 86.5274 359.624 86.4995 359.885 86.4112C360.145 86.323 360.382 86.1767 360.577 85.9834C362.831 83.1569 364.066 79.8512 365.516 76.5814C366.967 73.3117 368.67 69.8024 370.42 66.4967C373.957 59.8003 377.943 53.35 382.349 47.1897C383.692 45.3093 380.575 43.5127 379.244 45.3812C374.947 51.3785 371.05 57.6521 367.579 64.1612C365.868 67.3551 364.27 70.6288 362.783 73.9824C361.356 77.1324 360.253 80.6776 358.071 83.4084L360.901 83.7677C357.964 78.3701 355.674 72.6455 354.079 66.7123C353.934 66.275 353.628 65.9096 353.222 65.6918C352.815 65.4739 352.341 65.4201 351.896 65.5416C351.452 65.663 351.071 65.9503 350.832 66.3443C350.593 66.7382 350.515 67.2087 350.614 67.6585Z" fill="#5B8182"/>
<path d="M153.174 329.37C153.302 329.981 153.307 330.611 153.186 331.224C153.066 331.837 152.823 332.419 152.473 332.936C152.123 333.454 151.673 333.895 151.148 334.235C150.624 334.575 150.037 334.806 149.421 334.915L100.265 343.491C99.5421 343.629 98.7987 343.622 98.0782 343.47C97.3577 343.318 96.6746 343.025 96.0688 342.607C95.4629 342.189 94.9463 341.655 94.5491 341.035C94.1519 340.416 93.8821 339.724 93.7552 338.999C91.2734 324.854 84.2837 288.695 84.2837 288.695C84.1949 288.281 84.1903 287.852 84.2701 287.435C84.3499 287.019 84.5125 286.622 84.7484 286.269C84.9842 285.916 85.2885 285.614 85.6432 285.381C85.9978 285.148 86.3958 284.988 86.8134 284.911L138.367 275.221C139.21 275.064 140.08 275.246 140.788 275.729C141.496 276.211 141.984 276.955 142.144 277.796L153.174 329.37Z" fill="white"/>
<path d="M154.902 328.891C155.258 330.58 154.933 332.341 153.997 333.792C153.061 335.243 151.589 336.267 149.902 336.64C149.399 336.748 148.871 336.819 148.368 336.903L138.548 338.616L109.954 343.61L101.562 345.084C100.211 345.383 98.8115 345.383 97.4612 345.084C94.0203 344.209 92.4497 341.335 91.8742 338.101C89.824 326.555 87.606 315.033 85.412 303.511C84.6127 299.311 83.8134 295.107 83.0141 290.899C82.8823 290.217 82.7384 289.534 82.6305 288.851C82.4003 287.559 82.6835 286.228 83.4201 285.141C84.1566 284.054 85.2884 283.297 86.5749 283.03C93.0012 281.557 99.5953 280.635 106.081 279.365L133.081 274.287C134.917 273.857 136.774 273.521 138.644 273.281C139.877 273.199 141.097 273.566 142.078 274.315C143.06 275.064 143.735 276.144 143.979 277.353C144.159 278.072 144.291 278.802 144.447 279.533L149.734 304.338L154.662 327.597L154.938 328.891C155.417 331.142 151.952 332.1 151.473 329.837L142.265 286.719L140.622 279.018C140.455 278.251 140.359 277.353 139.495 277.03C138.923 276.925 138.333 276.966 137.781 277.15L116.2 281.21L91.2148 285.905C90.0758 286.12 86.6109 286.204 86.1553 287.594C86.061 288.329 86.1432 289.076 86.3951 289.773L87.2583 294.265C89.3525 305.188 91.4226 316.119 93.4688 327.058C93.9483 329.609 94.4159 332.172 94.8835 334.723C95.3031 337.035 95.2552 340.377 97.725 341.502C99.4754 342.293 101.933 341.443 103.72 341.131C118.706 338.52 133.693 336.077 148.691 333.274C150.37 332.963 151.772 331.777 151.461 329.897C151.065 327.573 154.518 326.603 154.902 328.891Z" fill="black"/>
<path d="M97.1564 307.2C96.6777 313.638 96.9513 320.109 97.9717 326.483C98.0481 326.747 98.1835 326.991 98.3677 327.195C98.5519 327.4 98.78 327.56 99.035 327.664C99.29 327.767 99.5651 327.812 99.8399 327.794C100.115 327.776 100.382 327.697 100.621 327.561C103.655 325.657 105.921 322.89 108.354 320.315C110.788 317.74 113.498 315.045 116.207 312.53C121.696 307.442 127.524 302.732 133.652 298.433C135.534 297.103 133.736 293.989 131.841 295.319C125.751 299.586 119.944 304.243 114.457 309.26C111.731 311.751 109.098 314.33 106.556 316.997C104.098 319.56 101.844 322.555 98.7989 324.459L101.449 325.525C100.498 319.465 100.265 313.314 100.753 307.2C100.933 304.888 97.3362 304.9 97.1564 307.2Z" fill="#5B8182"/>
<path d="M251.534 250.501C253.644 244.512 250.107 239.038 249.724 233.254C249.208 225.612 248.345 218.019 249.256 210.353C248.884 203.407 250.059 196.628 251.354 189.825C251.954 186.675 253.237 185.381 256.342 184.303C265.338 181.304 273.619 176.485 280.668 170.146C276.807 168.146 273.99 165.427 274.122 160.672L266.257 162.804C261.677 164.601 257.121 166.469 252.505 168.194C249.076 169.476 245.779 171.631 241.823 170.218C234.941 174.29 231.104 173.548 228.695 167.703C221.921 167.212 218.144 161.798 213.18 158.325C207.25 154.269 201.311 150.212 195.364 146.156C195.364 147.785 193.063 150.48 193.027 152.145C189.43 155.738 184.634 153.342 184.634 153.342C184.634 155.738 196.204 168.661 198.17 169.715C207.761 174.877 210.159 183.07 208.445 193.106C208.302 194.1 208.347 195.111 208.577 196.089C211.226 208.413 207.378 219.624 203.062 230.882C201.539 234.799 197.99 238.272 199.369 243.111C201.875 242.428 203.361 244.404 205.268 245.314C220.074 252.381 235.205 256.729 251.534 250.501Z" fill="#A0D0D1"/>
<path d="M251.534 250.501C235.205 256.729 220.075 252.381 205.268 245.279C203.362 244.368 201.875 242.392 199.369 243.075C197.043 259.531 194.713 275.984 192.379 292.432C192.008 295.391 192.2 298.421 190.833 301.235C189.634 309.619 191.732 317.632 193.147 325.741C197.259 339.766 201.443 353.779 205.388 367.852C206.287 371.062 207.594 373.254 211.107 373.577L221.537 371.361C224.954 369.756 225.614 367.553 224.655 363.672C221.549 351.168 218.108 338.688 216.814 325.789C216.502 324.663 216.094 323.549 215.89 322.399C213.768 310.302 220.29 300.11 223.216 289.127C222.341 279.988 219.283 271.329 217.401 262.418C216.478 258.058 217.917 256.669 221.849 257.699C225.532 258.519 229.33 258.685 233.071 258.19C239.557 257.567 245.935 255.878 252.518 256.154C252.973 254.094 252.218 252.309 251.534 250.501Z" fill="#40528E"/>
<path d="M252.529 256.094C245.947 255.818 239.569 257.507 233.083 258.13C229.342 258.626 225.544 258.459 221.861 257.639C217.929 256.609 216.49 257.998 217.413 262.358C219.295 271.269 222.353 279.928 223.228 289.067C224.007 292.121 224.559 295.259 225.626 298.217C228.419 306.086 230.421 316.794 233.742 322.171C234.114 322.758 233.742 322.399 236.2 323.429C253.177 330.471 271.077 334.963 288.497 340.832C290.195 341.375 292.012 341.425 293.737 340.975C295.583 337.454 299.731 335.466 300.486 331.214C300.774 328.184 298.089 327.825 296.338 326.866C283.318 319.932 270.286 313.021 257.193 306.242C254.34 304.757 252.841 303.092 252.398 299.595C251.199 289.366 252.769 279.293 253.273 269.161C253.513 264.693 253.944 260.37 252.529 256.094Z" fill="#5A6FC2"/>
<path d="M280.668 170.146C273.619 176.485 265.338 181.304 256.341 184.303C253.236 185.381 251.953 186.699 251.354 189.825C250.059 196.628 248.884 203.407 249.256 210.353C260.657 211.934 269.745 206.629 278.45 200.424C282.55 197.502 285.859 195.574 290.99 199.526C296.122 203.479 303.663 201.119 307.607 196.196C311.935 190.771 311.54 182.399 306.684 177.033C302.776 172.662 297.44 170.949 292.081 169.308C290.175 168.733 288.245 168.254 286.326 167.739L280.668 170.146Z" fill="#0C0A0A"/>
<path d="M241.824 170.218C245.78 171.632 249.077 169.476 252.506 168.194C257.122 166.469 261.678 164.601 266.258 162.804C262.433 160.792 261.942 157.008 261.246 153.366C258.597 139.269 252.35 133.916 238.119 134.012C233.407 134.012 230.47 136.551 230.17 141.545C231.585 142.216 232.952 143.018 234.414 143.545C241.608 146.12 243.862 151.031 242.339 158.445C241.548 162.241 241.956 166.29 241.824 170.218Z" fill="#0C0A0A"/>
<path d="M280.668 170.146L286.327 167.679C292.082 159.295 292.933 149.45 294.912 139.94C296.111 134.083 297.202 128.203 299.707 122.717C300.667 120.633 301.374 118.585 299.264 116.729C297.453 115.148 295.187 114.405 293.173 115.531C290.967 116.729 288.27 118.513 289.073 121.519C291.471 130.215 287.059 137.09 283.198 143.952C280.069 149.498 276.628 154.864 274.086 160.72C273.99 165.427 276.808 168.146 280.668 170.146Z" fill="#EE9955" fill-opacity="0.7"/>
<path d="M190.545 131.748C188.827 127.991 187.967 123.9 188.027 119.771C187.906 119.509 187.872 119.215 187.931 118.932C187.74 118.058 187.548 117.184 187.344 116.309C186.625 113.435 187.5 110.872 188.807 108.333C190.257 105.554 188.723 103.075 187.008 101.362C185.294 99.6493 182.428 100.164 180.27 101.039C177.645 102.165 178.388 104.835 178.808 106.8C179.721 111.059 179.988 115.432 179.599 119.771C179.599 123.795 179.599 127.819 179.599 131.856C179.528 135.204 179.632 138.555 179.911 141.892C180.534 146.683 180.942 151.786 185.761 154.756C189.718 155.51 194.25 152.085 194.25 150.887C194.25 149.258 195.365 147.761 195.389 146.096L190.545 131.748Z" fill="#EE9955" fill-opacity="0.7"/>
<path d="M241.823 170.218C241.955 166.29 241.547 162.241 242.339 158.445C243.861 151.031 241.619 146.12 234.414 143.545C232.951 143.018 231.584 142.216 230.17 141.545C229.63 143.09 229.534 144.575 228.971 146.12C228.743 146.54 227.999 148.097 227.772 148.516C222.856 160.229 236.164 158.097 228.671 167.679C231.105 173.548 234.989 174.29 241.823 170.218Z" fill="#EE9955" fill-opacity="0.7"/>
<path d="M310.425 332.891C307.269 331.806 303.885 331.562 300.606 332.184C300.102 335.67 302.908 339.61 299.119 342.628C299.671 347.886 300.138 353.156 300.822 358.402C301.193 361.181 302.14 364.69 305.138 364.69C308.363 364.69 308.267 362.079 309.322 359.312C310.566 355.863 310.928 352.158 310.377 348.533C308.483 343.287 311.96 338.089 310.425 332.891Z" fill="#715286"/>
<path d="M213.54 382.069C210.999 384.859 207.75 386.488 204.429 388.177C200.484 390.189 196.132 392.189 196.444 397.855C198.325 397.678 200.214 397.602 202.103 397.627C209.812 397.627 209.812 396.429 218.192 394.393L218.408 394.106C224.199 391.71 224.199 390.513 227.676 389.111C227.484 385.374 226.908 381.793 223.539 379.422C220.23 380.38 217.737 384.464 213.54 382.069Z" fill="#715286"/>
<path d="M213.54 382.069C217.736 384.464 220.23 380.404 223.539 379.422C222.676 376.775 221.513 374.188 221.549 371.325L211.118 373.541L213.54 382.069Z" fill="#EE9955" fill-opacity="0.7"/>
<path d="M299.119 342.628C302.908 339.61 300.102 335.67 300.606 332.184C300.687 332.018 300.717 331.833 300.694 331.65C300.67 331.467 300.594 331.294 300.474 331.154C299.67 335.418 295.57 337.406 293.724 340.927C295.329 341.985 297.197 342.574 299.119 342.628Z" fill="#EE9955" fill-opacity="0.7"/>
<path d="M218.205 394.369C207.415 397.639 207.415 397.639 202.116 397.603C200.226 397.578 198.337 397.654 196.457 397.831C196.84 400.358 198.782 400.334 200.485 399.939C206.528 398.561 212.738 397.639 218.205 394.369Z" fill="#DBDAD9"/>
<path d="M310.426 332.891C311.961 338.089 308.484 343.287 310.426 348.461C313.963 343.922 313.987 336.292 310.426 332.891Z" fill="#DBDAD9"/>
<path d="M227.676 389.087C224.079 389.83 223 391.65 218.204 394.046C221.681 393.088 226.189 393.734 227.676 389.087Z" fill="#DBDAD9"/>
<path d="M231.956 148.204C231.668 149.318 231.333 150.432 231.105 151.558C231.039 151.74 231.039 151.939 231.105 152.121C231.235 152.294 231.415 152.423 231.62 152.492C232.1 152.75 232.607 152.955 233.131 153.103C233.245 153.135 233.343 153.211 233.401 153.314C233.459 153.417 233.474 153.54 233.443 153.654C233.411 153.768 233.335 153.865 233.231 153.924C233.128 153.982 233.006 153.997 232.891 153.965C232.277 153.786 231.682 153.545 231.117 153.247C230.841 153.132 230.604 152.942 230.432 152.698C230.26 152.454 230.161 152.167 230.146 151.869C230.2 151.244 230.333 150.629 230.541 150.037L231.069 147.965C231.085 147.908 231.111 147.855 231.147 147.809C231.184 147.763 231.229 147.724 231.28 147.695C231.331 147.666 231.388 147.648 231.446 147.64C231.504 147.633 231.564 147.638 231.62 147.653C231.677 147.669 231.73 147.696 231.776 147.732C231.823 147.768 231.861 147.813 231.89 147.864C231.919 147.916 231.938 147.972 231.945 148.03C231.952 148.089 231.948 148.148 231.932 148.204H231.956Z" fill="black"/>
</svg>
