<svg width="347" height="350" viewBox="0 0 347 350" fill="none" xmlns="http://www.w3.org/2000/svg">
<path d="M294 332.055L197.409 287.3C197.027 287.118 196.646 286.918 196.291 286.7L99.9547 285.491C64.7729 285.045 36.6365 253.245 37.1274 214.482L38.6365 93.8182C39.1274 55.0455 68.0456 23.9636 103.227 24.4091L245.246 26.1909C280.427 26.6364 308.564 58.4364 308.073 97.2L306.555 217.855C306.264 241.355 295.518 262.018 279.273 274.555L308.546 309.091C318.091 320.364 306.891 338.027 294 332.055Z" fill="#EE9955"/>
<path d="M292.028 33.6L324.283 248.5C325.637 257.555 319.801 266 311.301 267.273C308.146 267.745 306.183 271.1 307.165 274.345L314.901 300.055C316.128 304.136 312.765 308.018 308.837 307.036L211.055 282.7C210.419 282.545 209.774 282.509 209.137 282.609L85.5191 301.155C77.0191 302.427 68.9646 296.073 67.6009 287.018L35.3555 72.1182C34.0009 63.0636 39.8373 54.6182 48.3373 53.3455L274.119 19.4636C282.61 18.1818 290.674 24.5455 292.028 33.6Z" stroke="black" stroke-width="4" stroke-miterlimit="10"/>
<path d="M159.873 164.9C158.036 165.1 156.318 165.273 154.6 165.473C150.509 165.945 147.245 164.6 145.027 161.064C142.336 156.764 143.773 150.782 148.318 148.427C155.664 144.627 163.236 141.336 171.491 140.009C176.182 139.255 180.755 139.591 184.964 142.064C189.455 144.709 191.627 148.864 192.564 153.818C193.209 157.236 192.936 160.655 192.718 164.082C192.136 173.336 189.627 199.345 188.873 203.073C187.182 211.455 185.436 219.818 183.709 228.191C183.473 229.336 183.273 230.482 182.973 231.609C182.782 232.345 183.082 232.582 183.727 232.618C184.255 232.645 184.782 232.664 185.309 232.691C192.3 232.991 197.955 237.873 197.8 245.664C197.755 247.991 197.245 250.318 195.827 252.073C190.9 258.182 183.118 257.691 176.882 258.218C169.636 258.827 163.427 256.8 159.2 250.473C157.055 247.264 155.982 243.609 155.882 239.8C155.764 235.209 155.9 230.609 156.155 226.018C156.8 214.464 157.573 202.909 158.3 191.355C158.818 183.036 159.336 174.718 159.855 166.4C159.9 165.955 159.873 165.509 159.873 164.9Z" fill="white" stroke="black" stroke-width="4" stroke-miterlimit="10"/>
<path d="M170.236 261.2C166.782 261.691 163.382 261.636 160.009 260.991C150.491 259.155 144.173 252.309 142.909 242.545C142.236 237.373 143.091 232.327 144.127 227.3C147.264 212.036 150.391 196.773 153.527 181.509C154.373 177.382 155.218 173.245 156.073 169.118C156.127 168.845 156.264 168.591 156.573 168.345C156.609 168.573 156.691 168.8 156.673 169.027C155.764 183.782 154.818 198.527 153.927 213.282C153.464 221 153.036 228.718 152.718 236.436C152.564 240.073 153.1 243.655 154.291 247.118C156.818 254.436 161.855 259 169.391 260.8C169.609 260.855 169.827 260.918 170.036 260.991C170.1 261.009 170.136 261.091 170.236 261.2Z" fill="white"/>
<path d="M183.636 133.636C195.183 133.636 204.545 124.275 204.545 112.727C204.545 101.179 195.183 91.8182 183.636 91.8182C172.088 91.8182 162.727 101.179 162.727 112.727C162.727 124.275 172.088 133.636 183.636 133.636Z" fill="white"/>
<path d="M175.454 129.091C187.002 129.091 196.363 119.73 196.363 108.182C196.363 96.6341 187.002 87.2727 175.454 87.2727C163.906 87.2727 154.545 96.6341 154.545 108.182C154.545 119.73 163.906 129.091 175.454 129.091Z" stroke="black" stroke-width="4" stroke-miterlimit="10"/>
<path d="M191.172 295.182C196.89 297.709 202.599 300.227 208.317 302.755C209.326 303.2 210.517 303.045 211.117 302.018C211.627 301.145 211.399 299.664 210.381 299.218C204.663 296.691 198.954 294.173 193.236 291.645C192.227 291.2 191.036 291.355 190.436 292.382C189.926 293.255 190.154 294.727 191.172 295.182Z" fill="black"/>
<path d="M215.818 306.718C218.4 307.855 220.982 309 223.564 310.136C224.082 310.364 224.564 310.5 225.136 310.345C225.609 310.218 226.127 309.845 226.355 309.409C226.827 308.518 226.664 307.073 225.618 306.609C223.036 305.473 220.455 304.327 217.873 303.191C217.355 302.964 216.873 302.827 216.3 302.982C215.827 303.109 215.309 303.482 215.082 303.918C214.618 304.809 214.773 306.264 215.818 306.718Z" fill="black"/>
<path d="M230.754 313.318C234.254 314.864 237.763 316.409 241.263 317.955C242.236 318.382 243.509 318.273 244.063 317.218C244.536 316.327 244.372 314.882 243.327 314.418C239.827 312.873 236.318 311.327 232.818 309.782C231.845 309.355 230.572 309.464 230.018 310.518C229.545 311.4 229.709 312.855 230.754 313.318Z" fill="black"/>
<path d="M248.691 320.573C251.455 321.791 254.218 323.018 256.991 324.236C257.509 324.464 257.991 324.6 258.564 324.445C259.037 324.318 259.555 323.945 259.782 323.509C260.255 322.618 260.091 321.173 259.046 320.709C256.282 319.491 253.518 318.264 250.746 317.045C250.228 316.818 249.746 316.682 249.173 316.836C248.7 316.964 248.182 317.336 247.955 317.773C247.491 318.664 247.655 320.118 248.691 320.573Z" fill="black"/>
<path d="M263.144 328.273C265.354 329.245 267.572 330.227 269.781 331.2C270.299 331.427 270.781 331.564 271.354 331.409C271.826 331.282 272.344 330.909 272.572 330.473C272.826 330 272.944 329.427 272.781 328.9C272.626 328.427 272.317 327.891 271.844 327.682C269.635 326.709 267.417 325.727 265.208 324.755C264.69 324.527 264.208 324.391 263.635 324.545C263.163 324.673 262.644 325.045 262.417 325.482C262.163 325.955 262.044 326.527 262.208 327.055C262.354 327.527 262.663 328.064 263.144 328.273Z" fill="black"/>
<path d="M175.628 28.2364C181.773 27.1091 187.919 25.9818 194.064 24.8545C195.155 24.6545 195.764 23.3364 195.492 22.3364C195.173 21.1909 194.064 20.7091 192.973 20.9091C186.828 22.0364 180.682 23.1636 174.537 24.2909C173.446 24.4909 172.837 25.8091 173.11 26.8091C173.428 27.9545 174.537 28.4364 175.628 28.2364Z" fill="black"/>
<path d="M202.5 23.9273C205.273 23.4182 208.055 22.9091 210.828 22.4C211.882 22.2091 212.573 20.8727 212.255 19.8818C211.891 18.7545 210.873 18.2454 209.737 18.4545C206.964 18.9636 204.182 19.4727 201.41 19.9818C200.355 20.1727 199.664 21.5091 199.982 22.5C200.346 23.6273 201.373 24.1364 202.5 23.9273Z" fill="black"/>
<path d="M218.555 20.9818C222.319 20.2909 226.092 19.6 229.855 18.9091C230.91 18.7182 231.601 17.3818 231.282 16.3909C230.919 15.2636 229.901 14.7545 228.764 14.9636C225.001 15.6545 221.228 16.3455 217.464 17.0364C216.41 17.2273 215.719 18.5636 216.037 19.5545C216.41 20.6909 217.428 21.1909 218.555 20.9818Z" fill="black"/>
<path d="M237.481 16.9091C240.454 16.3636 243.426 15.8182 246.399 15.2727C247.454 15.0818 248.145 13.7455 247.826 12.7546C247.463 11.6273 246.445 11.1182 245.308 11.3273C242.335 11.8727 239.363 12.4182 236.39 12.9636C235.335 13.1546 234.645 14.4909 234.963 15.4818C235.326 16.6091 236.345 17.1091 237.481 16.9091Z" fill="black"/>
<path d="M253.755 15.1546C256.137 14.7182 258.51 14.2818 260.892 13.8455C261.374 13.7546 261.874 13.3091 262.11 12.9091C262.365 12.4727 262.474 11.8273 262.319 11.3364C261.955 10.2091 260.937 9.70001 259.801 9.9091C257.419 10.3455 255.046 10.7818 252.665 11.2182C252.183 11.3091 251.683 11.7546 251.446 12.1546C251.192 12.5909 251.083 13.2364 251.237 13.7273C251.61 14.8546 252.628 15.3636 253.755 15.1546Z" fill="black"/>
<path d="M278.627 335.109C281.763 336.491 284.9 337.873 288.027 339.264C289 339.691 290.272 339.582 290.827 338.527C291.3 337.636 291.136 336.191 290.091 335.727C286.954 334.345 283.818 332.964 280.691 331.573C279.718 331.145 278.445 331.255 277.891 332.309C277.427 333.2 277.581 334.655 278.627 335.109Z" fill="black"/>
<path d="M164.327 30.1909C157.381 26.1091 151.045 21.0909 145.627 15.1273C144.445 13.8273 142.518 15.7636 143.7 17.0545C149.272 23.1727 155.827 28.3455 162.954 32.5364C164.463 33.4364 165.836 31.0818 164.327 30.1909Z" fill="black"/>
<path d="M145.945 30.3273C152.39 26.6546 158.036 21.5546 161.963 15.2364C162.89 13.7455 160.536 12.3727 159.609 13.8636C155.927 19.7909 150.618 24.5364 144.572 27.9727C143.036 28.8364 144.409 31.1909 145.945 30.3273Z" fill="black"/>
<path d="M163.436 311.473C167.445 305.855 172.336 300.836 177.854 296.7C178.445 296.264 178.745 295.518 178.345 294.836C178.008 294.255 177.072 293.9 176.481 294.345C170.554 298.782 165.381 304.064 161.081 310.091C160.654 310.691 160.972 311.609 161.572 311.955C162.254 312.364 163.008 312.073 163.436 311.473Z" fill="black"/>
<path d="M163.245 296.691C167.018 302.145 172.081 306.636 177.991 309.664C179.554 310.464 180.936 308.109 179.363 307.309C173.872 304.5 169.109 300.391 165.6 295.309C165.181 294.7 164.4 294.427 163.736 294.818C163.136 295.173 162.827 296.082 163.245 296.691Z" fill="black"/>
<path d="M320.982 121.118C323.937 115.745 327.691 110.891 332.146 106.673C333.419 105.464 331.491 103.536 330.219 104.745C325.609 109.109 321.691 114.182 318.628 119.745C317.782 121.282 320.137 122.664 320.982 121.118Z" fill="black"/>
<path d="M316.673 109.427C321.346 112.909 326.328 115.973 331.546 118.573C333.11 119.355 334.492 117 332.919 116.218C327.701 113.618 322.728 110.555 318.046 107.073C317.455 106.636 316.519 106.973 316.183 107.564C315.773 108.255 316.083 108.991 316.673 109.427Z" fill="black"/>
<path d="M10.9822 121.118C13.9367 115.745 17.6913 110.891 22.1458 106.673C23.4185 105.464 21.4913 103.536 20.2185 104.745C15.6095 109.109 11.6913 114.182 8.62764 119.745C7.78218 121.282 10.1367 122.664 10.9822 121.118Z" fill="black"/>
<path d="M6.67345 109.427C11.3462 112.909 16.328 115.973 21.5462 118.573C23.1098 119.355 24.4916 117 22.9189 116.218C17.7007 113.618 12.728 110.555 8.04618 107.073C7.45527 106.636 6.5189 106.973 6.18254 107.564C5.77345 108.255 6.08254 108.991 6.67345 109.427Z" fill="black"/>
<path d="M321.164 105.273C322.074 109.945 322.71 114.664 323.074 119.409C323.128 120.145 323.655 120.773 324.437 120.773C325.128 120.773 325.855 120.145 325.801 119.409C325.419 114.427 324.746 109.464 323.792 104.555C323.655 103.827 322.783 103.418 322.11 103.6C321.364 103.8 321.028 104.545 321.164 105.273Z" fill="black"/>
<path d="M151.855 14.8182C151.855 19.4546 151.855 24.0909 151.855 28.7273C151.855 30.4818 154.583 30.4818 154.583 28.7273C154.583 24.0909 154.583 19.4546 154.583 14.8182C154.583 13.0636 151.855 13.0546 151.855 14.8182Z" fill="black"/>
<path d="M12.0539 105.509C11.9993 109.736 12.672 113.973 14.0448 117.973C14.2811 118.673 14.9811 119.127 15.7266 118.927C16.4084 118.745 16.9175 117.945 16.6811 117.245C15.3811 113.455 14.7357 109.518 14.7902 105.509C14.7993 103.745 12.072 103.745 12.0539 105.509Z" fill="black"/>
<path d="M161.709 303.591C168.127 302.936 174.563 302.5 181.018 302.273C182.772 302.209 182.772 299.482 181.018 299.545C174.572 299.764 168.127 300.209 161.709 300.864C159.981 301.045 159.963 303.773 161.709 303.591Z" fill="black"/>
</svg>
