<svg width="22" height="22" viewBox="0 0 22 22" fill="none" xmlns="http://www.w3.org/2000/svg">
<g clip-path="url(#clip0_1046_6183)">
<path d="M11 0C4.92545 0 0 4.92545 0 11C0 17.0746 4.92545 22 11 22C17.0746 22 22 17.0746 22 11C22 4.92545 17.0746 0 11 0ZM11 20.1339C5.9567 20.1339 1.86607 16.0433 1.86607 11C1.86607 5.9567 5.9567 1.86607 11 1.86607C16.0433 1.86607 20.1339 5.9567 20.1339 11C20.1339 16.0433 16.0433 20.1339 11 20.1339Z" fill="#536FC8"/>
<path d="M9.82104 6.67857C9.82104 6.99115 9.94522 7.29092 10.1662 7.51195C10.3873 7.73297 10.687 7.85714 10.9996 7.85714C11.3122 7.85714 11.612 7.73297 11.833 7.51195C12.054 7.29092 12.1782 6.99115 12.1782 6.67857C12.1782 6.36599 12.054 6.06622 11.833 5.8452C11.612 5.62417 11.3122 5.5 10.9996 5.5C10.687 5.5 10.3873 5.62417 10.1662 5.8452C9.94522 6.06622 9.82104 6.36599 9.82104 6.67857ZM11.5889 9.42857H10.4103C10.3023 9.42857 10.2139 9.51696 10.2139 9.625V16.3036C10.2139 16.4116 10.3023 16.5 10.4103 16.5H11.5889C11.6969 16.5 11.7853 16.4116 11.7853 16.3036V9.625C11.7853 9.51696 11.6969 9.42857 11.5889 9.42857Z" fill="#536FC8"/>
</g>
<defs>
<clipPath id="clip0_1046_6183">
<rect width="22" height="22" fill="white"/>
</clipPath>
</defs>
</svg>
