<svg width="176" height="176" viewBox="0 0 176 176" fill="none" xmlns="http://www.w3.org/2000/svg">
<g clip-path="url(#clip0_1046_5058)">
<path d="M64.9625 164.723C56.7324 164.731 48.6096 162.855 41.2161 159.238C33.8227 155.622 27.3546 150.362 22.3072 143.86C17.2598 137.358 13.7669 129.787 12.096 121.727C10.4251 113.666 10.6205 105.331 12.6672 97.3576C14.7139 89.3845 18.5576 81.9856 23.9041 75.7274C29.2506 69.4692 35.958 64.5177 43.5128 61.252C51.0675 57.9863 59.2693 56.493 67.4901 56.8865C75.7108 57.2799 83.7325 59.5497 90.941 63.5221C91.05 63.5606 91.1552 63.6091 91.2552 63.6671C92.0917 64.1956 93.0544 64.4906 94.0433 64.5214C95.3597 64.5214 96.6222 63.9984 97.5531 63.0673C98.4839 62.1363 99.0069 60.8736 99.0069 59.5569C99.0097 58.9383 98.892 58.3251 98.6604 57.7516L98.5879 57.5259C95.7336 50.1843 95.4864 42.085 97.8877 34.5829C100.289 27.0808 105.193 20.6309 111.78 16.3123C118.366 11.9936 126.236 10.0681 134.072 10.8578C141.908 11.6476 149.235 15.1047 154.828 20.6508C160.421 26.1969 163.94 33.4957 164.796 41.3261C165.653 49.1565 163.795 57.0437 159.534 63.6682C155.273 70.2928 148.866 75.2528 141.386 77.7187C133.906 80.1846 125.807 80.0067 118.442 77.2148L117.814 76.9972C117.237 76.7621 116.623 76.6337 116.001 76.6184H115.92C114.62 76.6376 113.381 77.1719 112.474 78.1043C111.568 79.0366 111.068 80.2907 111.086 81.591C111.119 82.633 111.445 83.6444 112.028 84.5085L112.077 84.5891C116.636 92.7979 118.973 102.055 118.858 111.444C118.742 120.834 116.178 130.03 111.419 138.125C106.66 146.219 99.8712 152.931 91.7232 157.596C83.5753 162.261 74.351 164.717 64.9625 164.723Z" fill="#1D1D1B"/>
<path d="M130.618 10.6771C135.661 10.6724 140.642 11.7769 145.21 13.9125C149.778 16.048 153.82 19.1622 157.05 23.0345C160.281 26.9067 162.62 31.4422 163.903 36.3195C165.185 41.1967 165.379 46.2965 164.472 51.2572C163.564 56.2179 161.576 60.9182 158.65 65.0251C155.723 69.1319 151.93 72.5447 147.538 75.0217C143.145 77.4986 138.262 78.979 133.234 79.358C128.207 79.737 123.157 79.0053 118.443 77.2148L117.815 76.9972C117.238 76.762 116.624 76.6337 116.002 76.6184H115.921C114.621 76.6375 113.381 77.1719 112.475 78.1042C111.569 79.0366 111.069 80.2906 111.086 81.591C111.119 82.6329 111.446 83.6443 112.029 84.5085L112.077 84.5891C116.636 92.7979 118.974 102.055 118.858 111.444C118.743 120.834 116.179 130.03 111.42 138.125C106.661 146.219 99.8719 152.931 91.7239 157.596C83.576 162.261 74.3517 164.717 64.9632 164.723C50.6577 164.723 36.9381 159.039 26.8225 148.922C16.707 138.804 11.0241 125.082 11.0241 110.774C11.0241 96.4656 16.707 82.7435 26.8225 72.626C36.9381 62.5086 50.6577 56.8247 64.9632 56.8247C74.0649 56.8245 83.0186 59.1284 90.99 63.522C91.0991 63.5606 91.2043 63.6091 91.3043 63.6671C92.1408 64.1956 93.1034 64.4905 94.0923 64.5214C95.4087 64.5214 96.6713 63.9983 97.6021 63.0673C98.533 62.1363 99.0559 60.8735 99.0559 59.5568C99.0587 58.9383 98.941 58.3251 98.7094 57.7516L98.6369 57.5259C96.6154 52.3194 95.892 46.6989 96.529 41.15C97.1661 35.6012 99.1445 30.291 102.293 25.6783C105.442 21.0657 109.667 17.2893 114.602 14.6756C119.537 12.062 125.034 10.6896 130.618 10.6771ZM130.618 0.199985C124.321 0.208187 118.096 1.54068 112.348 4.11097C106.599 6.68126 101.454 10.4319 97.2488 15.1195C93.043 19.807 89.8698 25.3267 87.9351 31.3203C86.0003 37.3139 85.3473 43.6475 86.0184 49.9098C72.2522 45.149 57.2787 45.1983 43.5442 50.0498C29.8097 54.9013 18.1263 64.2682 10.4027 76.6199C2.67911 88.9717 -0.627982 103.578 1.02174 118.053C2.67146 132.528 9.18047 146.015 19.4853 156.311C29.7901 166.608 43.2816 173.104 57.7554 174.74C72.2292 176.375 86.8297 173.053 99.1713 165.315C111.513 157.577 120.866 145.882 125.703 132.14C130.54 118.399 130.574 103.422 125.8 89.6584C127.406 89.8296 129.02 89.9157 130.635 89.9163C136.596 90.0282 142.52 88.9504 148.06 86.7458C153.6 84.5413 158.645 81.2542 162.9 77.0768C167.155 72.8993 170.535 67.9154 172.841 62.4163C175.148 56.9173 176.336 51.0134 176.335 45.0499C176.334 39.0864 175.144 33.183 172.835 27.6848C170.526 22.1865 167.145 17.2038 162.888 13.0279C158.632 8.85201 153.586 5.56674 148.045 3.36416C142.504 1.16158 136.58 0.0858915 130.618 0.199985Z" fill="white"/>
<path d="M64.9618 62.9176C54.4631 62.9157 44.255 66.3669 35.9107 72.7396C27.5663 79.1122 21.5488 88.0525 18.7853 98.1829C16.0218 108.313 16.6657 119.071 20.6178 128.8C24.5699 138.528 31.6109 146.686 40.6558 152.018C49.7007 157.349 60.2475 159.558 70.671 158.303C81.0946 157.049 90.8164 152.4 98.3383 145.075C105.86 137.749 110.765 128.153 112.297 117.765C113.828 107.376 111.902 96.7725 106.814 87.5871C105.667 85.7962 105.05 83.7176 105.033 81.591C105.021 78.6782 106.162 75.8789 108.209 73.8064C110.255 71.7339 113.04 70.5571 115.952 70.5336H116.145C117.41 70.5567 118.662 70.7994 119.844 71.2509C120.021 71.3154 120.198 71.3799 120.392 71.4363L120.569 71.5008C126.633 73.8128 133.307 73.9683 139.472 71.9412C145.637 69.914 150.917 65.8275 154.426 60.3676C157.935 54.9077 159.459 48.4067 158.743 41.9556C158.027 35.5046 155.115 29.4962 150.494 24.9389C145.873 20.3816 139.825 17.5528 133.366 16.9272C126.907 16.3017 120.429 17.9174 115.02 21.5033C109.611 25.0892 105.599 30.4269 103.659 36.6207C101.719 42.8145 101.968 49.4873 104.365 55.5191L104.445 55.8093C105.218 57.9272 105.323 60.2312 104.746 62.4106C104.169 64.59 102.938 66.5401 101.218 67.9981C99.4989 69.456 97.374 70.3517 95.13 70.5645C92.8859 70.7772 90.6306 70.2967 88.668 69.1877C88.5364 69.1374 88.4097 69.0754 88.2893 69.0024C81.1473 65.0117 73.1025 62.9168 64.9215 62.9176H64.9618Z" fill="#FECC33"/>
<path d="M130.538 67.9547C130.11 67.9572 129.686 67.8743 129.29 67.7111C128.894 67.5478 128.535 67.3073 128.233 67.0037C126.388 65.2065 124.205 63.4092 121.924 61.5072C115.011 55.7771 107.863 49.8535 107.863 42.7129C107.863 34.307 113.504 27.9644 120.989 27.9644C124.466 28.0399 127.822 29.2577 130.538 31.4299C133.255 29.2588 136.61 28.0411 140.087 27.9644C147.572 27.9644 153.213 34.307 153.213 42.7129C153.213 49.8535 146.065 55.7771 139.152 61.5072C136.863 63.4092 134.688 65.2065 132.883 66.9714C132.577 67.2828 132.212 67.5302 131.809 67.699C131.407 67.8678 130.975 67.9547 130.538 67.9547Z" fill="#1D1D1B"/>
<path d="M120.988 34.1055C116.838 34.1055 113.945 37.6677 113.945 42.7692C113.945 47.0487 120.247 52.2712 125.806 56.8811C127.418 58.1948 129.03 59.5487 130.536 60.9108C132.059 59.5487 133.687 58.2028 135.274 56.8811C140.834 52.2309 147.152 47.0004 147.152 42.729C147.152 37.6274 144.251 34.0652 140.101 34.0652C137.643 34.0652 135.073 35.2983 132.672 37.6355C132.104 38.1859 131.344 38.4937 130.553 38.4937C129.761 38.4937 129.001 38.1859 128.433 37.6355C126.016 35.2983 123.462 34.0652 121.004 34.0652L120.988 34.1055Z" fill="white"/>
<path d="M42.4012 95.7431V71.678H50.4591C52.6078 71.678 54.1979 72.2744 55.2293 73.4672C56.3896 74.9416 56.9637 76.7931 56.8409 78.6655C56.8495 79.4778 56.7684 80.2887 56.5991 81.0832C56.4769 81.7251 56.2394 82.3395 55.8981 82.8966C55.6082 83.3687 55.2466 83.7929 54.8264 84.1538C54.4059 84.5097 53.922 84.7832 53.4002 84.9598C52.8627 85.1543 52.3064 85.292 51.7403 85.3708C51.1183 85.4581 50.4909 85.5012 49.8628 85.4998H47.7194V95.7431H42.4012ZM47.7113 81.7925H49.4035C49.7579 81.8429 50.1193 81.802 50.4535 81.6736C50.7877 81.5453 51.0836 81.3338 51.3132 81.0591C51.6889 80.2884 51.853 79.4317 51.7886 78.5768V77.5694C51.7641 77.2792 51.7074 76.9927 51.6194 76.7151C51.5658 76.4371 51.444 76.1768 51.2648 75.9575C51.0632 75.772 50.8242 75.6318 50.5638 75.5465C50.2128 75.4322 49.8451 75.3777 49.476 75.3853H47.7194L47.7113 81.7925ZM58.4605 95.7431V71.678H65.0196C65.9223 71.6766 66.8241 71.7358 67.7189 71.8553C68.4752 71.9654 69.2144 72.1712 69.9187 72.4678C70.5603 72.7167 71.1404 73.1016 71.6189 73.5961C72.0926 74.1257 72.4495 74.749 72.6664 75.4256C72.9288 76.2758 73.0486 77.1636 73.021 78.0529C73.0771 79.3515 72.8603 80.6474 72.3844 81.8569C71.91 82.8505 71.0911 83.638 70.0799 84.0733L73.3917 95.727H67.9043L65.2613 84.9759H63.7706V95.7431H58.4605ZM63.7706 81.9134H65.1324C65.5514 81.9657 65.9769 81.9202 66.3753 81.7803C66.7738 81.6405 67.1344 81.4102 67.4289 81.1074C67.9289 80.3596 68.1643 79.4659 68.0977 78.5687C68.1621 77.7009 67.9506 76.8349 67.4933 76.0945C67.2369 75.8032 66.9142 75.5778 66.5523 75.4375C66.1905 75.2972 65.8002 75.2462 65.4144 75.2886H63.8028L63.7706 81.9134ZM82.3197 96.1058C81.1582 96.1353 80.0009 95.9551 78.9032 95.5739C78.0171 95.2589 77.2378 94.7002 76.6551 93.962C76.0924 93.2476 75.6836 92.4244 75.4545 91.5442C75.1872 90.4362 75.06 89.299 75.0757 88.1593V79.2941C75.0591 78.1526 75.1809 77.0133 75.4383 75.9011C75.6652 75.0039 76.0769 74.1639 76.647 73.435C77.2402 72.7189 78.0175 72.1783 78.8952 71.8714C79.9952 71.5009 81.1511 71.3237 82.3117 71.3476C84.9224 71.3476 86.7865 72.0138 87.9038 73.3463C89.0319 74.6842 89.5879 76.6426 89.5879 79.2377V88.1029C89.5879 90.7141 89.0238 92.6967 87.8958 94.0346C86.7677 95.3724 84.9224 96.0575 82.3197 96.1058ZM81.514 92.1729C81.7633 92.2989 82.0405 92.3598 82.3197 92.3502C82.5981 92.3597 82.8745 92.3016 83.1255 92.1809C83.3364 92.0865 83.5216 91.9428 83.6654 91.7618C83.8096 91.5647 83.9112 91.3396 83.9635 91.101C84.0378 90.838 84.0837 90.5678 84.1005 90.295V77.1181C84.0823 76.864 84.0363 76.6127 83.9635 76.3685C83.9078 76.1335 83.8065 75.9117 83.6654 75.7157C83.519 75.5395 83.3344 75.3989 83.1255 75.3047C82.8705 75.197 82.5965 75.1415 82.3197 75.1415C82.0429 75.1415 81.7689 75.197 81.514 75.3047C81.3105 75.404 81.1295 75.5439 80.9821 75.7157C80.8452 75.9132 80.7468 76.1346 80.692 76.3685C80.6355 76.6128 80.5951 76.8605 80.5712 77.11V90.2628C80.5951 90.5177 80.6355 90.7707 80.692 91.0204C80.7466 91.2569 80.845 91.481 80.9821 91.6812C81.1197 91.8669 81.2956 92.0208 81.4978 92.1326L81.514 92.1729ZM28.4531 122.25V118.551H28.6465C29.3781 118.635 30.117 118.477 30.7496 118.1C30.9893 117.832 31.1682 117.515 31.2739 117.171C31.3796 116.828 31.4096 116.465 31.362 116.109V97.5726H36.6721V116.311C36.6699 117.187 36.5699 118.06 36.374 118.914C36.2093 119.582 35.9013 120.206 35.4715 120.743C35.0249 121.288 34.428 121.688 33.7552 121.896C32.8752 122.161 31.9584 122.283 31.0397 122.258L28.4531 122.25ZM46.3657 122C45.3986 122.017 44.4338 121.903 43.4971 121.662C42.7639 121.475 42.0742 121.146 41.4665 120.695C40.9188 120.259 40.4733 119.709 40.1612 119.083C39.8231 118.39 39.587 117.651 39.4601 116.891C39.3166 115.966 39.2493 115.03 39.2587 114.094V97.6129H44.5124V115.843C44.5377 116.133 44.5835 116.422 44.6494 116.705C44.7099 116.974 44.8104 117.232 44.9475 117.471C45.0851 117.679 45.2738 117.848 45.4954 117.963C45.7594 118.09 46.0486 118.156 46.3415 118.156C46.6345 118.156 46.9236 118.09 47.1876 117.963C47.4062 117.85 47.5901 117.68 47.7194 117.471C47.8634 117.236 47.9643 116.976 48.0175 116.705C48.0918 116.421 48.1377 116.129 48.1545 115.835V97.6129H53.4163V114.094C53.4407 115.24 53.3271 116.385 53.0779 117.503C52.8721 118.38 52.485 119.203 51.9417 119.921C51.3802 120.641 50.6172 121.176 49.75 121.46C48.6612 121.833 47.5164 122.016 46.3657 122ZM60.1285 121.67L55.7772 97.6129H60.3218L62.9165 113.836L65.3338 97.6129H70.1685L65.7689 121.67H60.1285ZM72.4972 121.67V97.6129H83.3028V101.24H77.8073V107.187H81.9974V110.887H77.8073V118.076H83.3592V121.67H72.4972ZM85.7685 121.67V97.6129H89.5154L94.4629 109.162V97.6129H98.8705V121.67H95.2687L90.3131 109.218V121.67H85.7685ZM38.6543 147.871V127.723H34.9558V123.79H47.6308V127.723H44.0128V147.871H38.6543ZM56.6394 148.201C55.675 148.217 54.7129 148.104 53.7789 147.863C53.0413 147.679 52.3499 147.344 51.7483 146.88C51.1984 146.451 50.7568 145.898 50.4591 145.268C50.1138 144.58 49.8747 143.843 49.75 143.084C49.6065 142.158 49.5391 141.223 49.5485 140.287V123.814H54.8022V142.044C54.8276 142.334 54.8733 142.622 54.9392 142.906C54.9959 143.189 55.0965 143.461 55.2374 143.712C55.375 143.92 55.5636 144.089 55.7853 144.204C56.0492 144.331 56.3384 144.397 56.6314 144.397C56.9243 144.397 57.2135 144.331 57.4774 144.204C57.6961 144.091 57.8799 143.921 58.0093 143.712C58.1578 143.464 58.2588 143.191 58.3074 142.906C58.3817 142.621 58.4276 142.33 58.4444 142.036V123.814H63.7061V140.295C63.7306 141.441 63.617 142.585 63.3677 143.704C63.1663 144.582 62.7789 145.407 62.2316 146.122C61.698 146.862 60.9538 147.423 60.0962 147.734C58.9805 148.092 57.8102 148.25 56.6394 148.201ZM69.3466 147.871V127.723H65.6481V123.79H78.3311V127.723H74.6326V147.871H69.3466ZM80.3858 147.871V123.814H91.1995V127.44H85.696V133.388H89.8941V137.087H85.696V144.268H91.2559V147.871H80.3858Z" fill="#1D1D1B"/>
</g>
<defs>
<clipPath id="clip0_1046_5058">
<rect width="175" height="175" fill="white" transform="translate(0.5 0.199951)"/>
</clipPath>
</defs>
</svg>
