<svg width="25" height="24" viewBox="0 0 25 24" fill="none" xmlns="http://www.w3.org/2000/svg">
<path fill-rule="evenodd" clip-rule="evenodd" d="M2.15801 9.82755C2.07321 10.405 2.02922 10.9964 2.02922 11.5986C2.02922 18.0036 7.00628 23.1971 13.1445 23.1971C19.2827 23.1971 24.2598 18.0036 24.2598 11.5986C24.2598 5.19346 19.2827 0 13.1445 0C11.5075 0 9.95302 0.369391 8.55355 1.03264L9.41083 2.78862C10.5525 2.26083 11.8158 1.96761 13.1445 1.96761C18.2407 1.96761 22.3741 6.28082 22.3741 11.5986C22.3741 16.9163 18.2407 21.2295 13.1445 21.2295C8.04834 21.2295 3.91485 16.9163 3.91485 11.5986C3.91485 11.0778 3.95449 10.5666 4.0308 10.0682L2.19825 9.83269L2.15801 9.82755ZM16.2832 7.07543L13.7252 10.7673L7.58453 10.7673C7.47537 10.7673 7.38605 10.8605 7.38605 10.9744V12.2197C7.38605 12.3336 7.47537 12.4268 7.58453 12.4268L14.4175 12.4268C14.482 12.4268 14.5415 12.3957 14.5787 12.3414L17.5709 8.05924C17.6354 7.96604 17.6156 7.83659 17.5287 7.76927L16.5611 7.02883C16.4693 6.96152 16.3453 6.98223 16.2832 7.07543ZM0.435085 9.60749L2.19825 9.83266L5.94388 10.3141C5.98095 10.3191 6.01859 10.313 6.05249 10.2966C6.08639 10.2802 6.11516 10.2541 6.13551 10.2214C6.15585 10.1887 6.16693 10.1507 6.16749 10.1117C6.16804 10.0727 6.15803 10.0344 6.13862 10.0011L3.81229 5.99923C3.74563 5.88573 3.593 5.86559 3.50352 5.95896L0.315785 9.256C0.201749 9.37865 0.271927 9.58735 0.435085 9.60749Z" fill="#333333"/>
</svg>
